<?xml version="1.0" encoding="UTF-8" standalone="no"?>
<!-- Generator: Adobe Illustrator 19.0.0, SVG Export Plug-In . SVG Version: 6.00 Build 0)  -->

<svg
   version="1.1"
   id="Layer_1"
   x="0px"
   y="0px"
   viewBox="0 0 1045.9727 512"
   xml:space="preserve"
   class="img-logo"
   height="32"
   width="130.74658"
   fill="#edf5e1"
   sodipodi:docname="logo.svg"
   inkscape:version="1.1.1 (3bf5ae0d25, 2021-09-20)"
   xmlns:inkscape="http://www.inkscape.org/namespaces/inkscape"
   xmlns:sodipodi="http://sodipodi.sourceforge.net/DTD/sodipodi-0.dtd"
   xmlns="http://www.w3.org/2000/svg"
   xmlns:svg="http://www.w3.org/2000/svg"><defs
   id="defs193" /><sodipodi:namedview
   id="namedview191"
   pagecolor="#ffffff"
   bordercolor="#666666"
   borderopacity="1.0"
   inkscape:pageshadow="2"
   inkscape:pageopacity="0.0"
   inkscape:pagecheckerboard="0"
   showgrid="false"
   inkscape:zoom="6.265625"
   inkscape:cx="80.678304"
   inkscape:cy="50.274314"
   inkscape:window-width="1920"
   inkscape:window-height="1011"
   inkscape:window-x="0"
   inkscape:window-y="32"
   inkscape:window-maximized="1"
   inkscape:current-layer="Layer_1"
   showguides="false" />
<g
   id="g122"
   transform="translate(-53.77)">
	<g
   id="g120">
		<path
   d="m 418.034,43.724 c -22.164,0 -40.197,18.032 -40.197,40.197 v 78.722 c 0,8.862 -7.21,16.072 -16.072,16.072 H 321.15 V 85.83 C 321.149,38.503 282.646,0 235.32,0 187.994,0 149.49,38.503 149.49,85.83 v 220.421 h -7.62 c -7.458,0 -13.524,-6.066 -13.524,-13.524 v -71.088 c 0,-20.561 -16.727,-37.288 -37.288,-37.288 -20.562,0 -37.288,16.728 -37.288,37.288 v 110.038 c 0,27.101 22.049,49.15 49.15,49.15 h 46.571 v 110.775 h -35.889 c -5.633,0 -10.199,4.566 -10.199,10.199 0,5.633 4.566,10.199 10.199,10.199 h 46.088 151.26 22.454 c 5.632,0 10.199,-4.566 10.199,-10.199 0,-5.633 -4.567,-10.199 -10.199,-10.199 H 321.15 V 259.109 h 83.749 c 29.407,0 53.333,-23.925 53.333,-53.333 V 83.921 C 458.231,61.756 440.199,43.724 418.034,43.724 Z M 149.49,360.43 h -46.571 c -15.854,0 -28.752,-12.898 -28.752,-28.752 V 221.639 c 0,-9.313 7.577,-16.89 16.89,-16.89 9.313,0 16.89,7.577 16.89,16.89 v 71.088 c 0,18.704 15.217,33.923 33.923,33.923 h 7.62 z M 300.751,491.602 H 169.888 V 85.83 c 0,-36.08 29.352,-65.432 65.432,-65.432 36.079,0 65.431,29.352 65.431,65.432 v 92.884 h -17.707 c -22.164,0 -40.197,18.032 -40.197,40.197 0,22.164 18.033,40.197 40.197,40.197 h 17.707 z M 437.833,205.776 v 0 c -0.001,18.16 -14.774,32.934 -32.935,32.934 H 283.044 c -10.917,0 -19.799,-8.881 -19.799,-19.799 0,-10.918 8.881,-19.799 19.799,-19.799 h 78.722 c 20.11,0 36.47,-16.361 36.47,-36.47 V 83.921 c 0,-10.917 8.881,-19.799 19.799,-19.799 10.917,0 19.799,8.881 19.799,19.799 v 121.855 z"
   id="path118" />
	</g>
</g>
<g
   id="g128"
   transform="translate(-53.77)">
	<g
   id="g126">
		<path
   d="m 202.231,289.525 c -5.633,0 -10.199,4.566 -10.199,10.199 v 142.99 c 0,5.633 4.566,10.199 10.199,10.199 5.633,0 10.199,-4.566 10.199,-10.199 v -142.99 c 0,-5.633 -4.566,-10.199 -10.199,-10.199 z"
   id="path124" />
	</g>
</g>
<g
   id="g134"
   transform="translate(-53.77)">
	<g
   id="g132">
		<path
   d="m 202.231,225.711 c -5.633,0 -10.199,4.566 -10.199,10.199 v 17.726 c 0,5.633 4.566,10.199 10.199,10.199 5.633,0 10.199,-4.566 10.199,-10.199 V 235.91 c 0,-5.632 -4.566,-10.199 -10.199,-10.199 z"
   id="path130" />
	</g>
</g>
<g
   id="g140"
   transform="translate(-53.77)">
	<g
   id="g138">
		<path
   d="m 235.32,94.538 c -5.633,0 -10.199,4.566 -10.199,10.199 v 49.633 c 0,5.633 4.566,10.199 10.199,10.199 5.633,0 10.199,-4.566 10.199,-10.199 v -49.633 c 0,-5.632 -4.566,-10.199 -10.199,-10.199 z"
   id="path136" />
	</g>
</g>
<g
   id="g146"
   transform="translate(-53.77)">
	<g
   id="g144">
		<path
   d="m 235.32,41.361 c -5.633,0 -10.199,4.566 -10.199,10.199 v 14.181 c 0,5.632 4.566,10.199 10.199,10.199 5.633,0 10.199,-4.566 10.199,-10.199 V 51.56 c 0,-5.633 -4.566,-10.199 -10.199,-10.199 z"
   id="path142" />
	</g>
</g>
<g
   id="g152"
   transform="translate(-53.77)">
	<g
   id="g150">
		<path
   d="m 277.863,388.791 c -5.632,0 -10.199,4.566 -10.199,10.199 v 14.181 c 0,5.633 4.567,10.199 10.199,10.199 5.632,0 10.199,-4.566 10.199,-10.199 V 398.99 c 0,-5.633 -4.567,-10.199 -10.199,-10.199 z"
   id="path148" />
	</g>
</g>
<g
   id="g158"
   transform="translate(-53.77)">
	<g
   id="g156">
		<path
   d="m 388.946,491.602 h -15.363 c -5.632,0 -10.199,4.566 -10.199,10.199 0,5.633 4.567,10.199 10.199,10.199 h 15.363 c 5.632,0 10.199,-4.566 10.199,-10.199 0,-5.633 -4.567,-10.199 -10.199,-10.199 z"
   id="path154" />
	</g>
</g>
<g
   id="g160"
   transform="translate(-53.77)">
</g>
<g
   id="g162"
   transform="translate(-53.77)">
</g>
<g
   id="g164"
   transform="translate(-53.77)">
</g>
<g
   id="g166"
   transform="translate(-53.77)">
</g>
<g
   id="g168"
   transform="translate(-53.77)">
</g>
<g
   id="g170"
   transform="translate(-53.77)">
</g>
<g
   id="g172"
   transform="translate(-53.77)">
</g>
<g
   id="g174"
   transform="translate(-53.77)">
</g>
<g
   id="g176"
   transform="translate(-53.77)">
</g>
<g
   id="g178"
   transform="translate(-53.77)">
</g>
<g
   id="g180"
   transform="translate(-53.77)">
</g>
<g
   id="g182"
   transform="translate(-53.77)">
</g>
<g
   id="g184"
   transform="translate(-53.77)">
</g>
<g
   id="g186"
   transform="translate(-53.77)">
</g>
<g
   id="g188"
   transform="translate(-53.77)">
</g>
<text
   xml:space="preserve"
   style="font-style:normal;font-weight:normal;font-size:277.333px;line-height:1.25;font-family:sans-serif;fill:#edf5e1;fill-opacity:1;stroke:none;stroke-width:8"
   x="277.21317"
   y="455.22714"
   id="text20231"><tspan
     sodipodi:role="line"
     id="tspan20229"
     style="font-style:normal;font-variant:normal;font-weight:normal;font-stretch:normal;font-size:277.333px;font-family:sans-serif;-inkscape-font-specification:sans-serif;fill:#edf5e1;fill-opacity:1;stroke-width:8"
     x="277.21317"
     y="455.22714">enum</tspan></text></svg>
